<?xml version="1.0" encoding="UTF-8" standalone="no"?>
<!DOCTYPE svg PUBLIC "-//W3C//DTD SVG 1.1//EN" "http://www.w3.org/Graphics/SVG/1.1/DTD/svg11.dtd">
<svg width="100%" height="100%" viewBox="0 0 1800 1800" version="1.1" xmlns="http://www.w3.org/2000/svg" xmlns:xlink="http://www.w3.org/1999/xlink" xml:space="preserve" xmlns:serif="http://www.serif.com/" style="fill-rule:evenodd;clip-rule:evenodd;stroke-linejoin:round;stroke-miterlimit:2;">
    <g id="Gemini_Generated_Image_3f5m0d3f5m0d3f5m.png" transform="matrix(2.15918,0,0,2.15918,-202.774916,-193.168497)">
        <path d="M288.819,547.31C290.222,547.347 290.23,547.415 290.333,547.35C290.44,547.283 291.335,543.514 292.391,540.458C293.077,538.474 298.645,522.354 300.768,515.586C301.802,512.288 297.062,512.077 292.758,509.134C278.481,499.376 271.466,486.075 270.196,483.667C247.323,440.298 282.769,411.05 280.541,382.497C277.962,349.452 280.459,333.296 315.576,323.767C319.31,322.754 316.757,320.851 322.269,297.443C328.335,271.683 333.675,265.138 332.292,263.719C331.629,263.039 331.498,263.414 328.5,263.483C306.419,263.993 297.938,253.934 300.802,240.565C305.466,218.8 350.682,186.68 351.797,185.947C356.995,182.523 370.451,172.578 396.691,160.955C484.326,122.136 572.159,140.256 631.297,192.744C634.822,195.872 635.603,192.278 640.728,189.969C663.524,179.7 686.566,203.399 676.801,228.62C674.253,235.201 670.127,239.274 669.844,239.721C669.273,240.622 669.309,240.795 673.839,250.336C676.443,255.821 677.107,255.301 681.54,259.455C684.639,262.358 684.458,262.494 687.472,265.526C691.7,269.78 710.727,265.687 722.388,276.618C735.187,288.615 729.783,328.113 718.843,346.714C706.959,366.921 695.592,364.189 695.738,369.493C696.01,379.417 695.37,379.827 698.181,382.813C717.634,403.474 713.503,425.989 705.986,438.8C702.391,444.926 701.468,444.901 702.299,446.621C704.263,450.684 707.56,448.582 717.948,470.289C720.227,475.052 720.785,474.608 724.72,478.204C729.307,482.395 723.563,465.657 741.975,440.838C753.621,425.139 776.94,408.017 786.789,401.94C795.764,396.402 799.345,392.361 803.238,397.681C805.751,401.114 800.585,417.617 801.511,418.491C802.221,419.161 802.543,418.942 811.687,411.749C818.893,406.078 818.613,412.473 825.66,418.295C829.188,421.21 839.77,426.813 840.632,427.149C844.624,428.7 847.865,421.815 853.563,424.38C859.544,427.072 855.491,434.524 855.135,435.338C845.184,458.071 820.018,517.812 816.313,526.418C811.728,537.07 810.566,537.604 813.099,540.818C817.077,545.865 819.618,556.43 818.662,563.518C813.9,598.822 787.351,602.257 787.323,602.282C785.775,603.642 787.634,617.592 782.3,645.458C768.053,719.883 743.038,710.483 733.428,706.674C727.008,704.13 711.171,694.917 708.251,692.913C703.685,689.78 705.576,694.562 706.018,700.541C708.239,730.596 713.822,792.152 713.388,800.491C712.561,816.363 659.798,832.351 659.008,833.13C658.295,833.833 659.668,836.093 659.805,836.318C662.519,840.783 664.878,848.925 661.654,856.568C652.89,877.351 618.094,869.224 589.662,855.187C570.371,845.663 571.459,841.927 565.588,842.97C545.236,846.586 545.067,845.615 543.412,846.308C539.955,847.755 545.204,855.31 534.52,855.801C488.319,857.923 454.858,854.845 442.469,853.794C437.869,853.404 438.032,854.428 434.841,857.803C403.329,891.13 371.158,888.409 363.381,871.562C356.432,856.506 366.979,844.693 365.278,842.711C364.236,841.498 331.625,836.636 290.416,821.728C278.619,817.46 282.01,809.79 282.778,797.502C282.922,795.183 280.343,794.804 278.563,794.282C220.18,777.171 223.104,754.18 233.931,701.586C235.427,694.321 236.433,694.123 234.307,689.59C225.865,671.59 238.733,650.663 238.404,647.513C238.215,645.704 200.997,612.838 193.194,605.847C171.481,586.392 163.88,583.881 167.892,570.619C170.986,560.388 179.399,551.625 185.446,548.407C193.34,544.205 197.829,545.747 195.041,541.815C180.393,521.155 181.319,519.996 183.171,514.391C190.029,493.625 220.508,480.361 232.331,487.79C234.382,489.078 236.322,490.297 246.897,514.332C248.74,518.519 250.066,516.695 254.454,515.351C266.497,511.66 276.248,515.18 279.006,518.895C282.72,523.897 288.818,547.305 288.819,547.31Z" style="fill:rgb(60,40,26);"/>
        <path d="M389.909,343.52C389.887,352.67 389.609,353.76 391.939,365.391C393.374,372.554 397.876,385.001 403.353,392.593C405.806,395.993 401.725,394.472 401.532,394.401C383.162,387.557 347.042,378.549 326.788,363.161C323.733,360.84 326.116,354.318 325.973,344.497C325.949,342.81 327.032,324.725 331.278,304.45C338.787,268.596 353.148,245.776 356.044,241.175C361.68,232.221 352.937,228.353 347.857,235.733C341.647,244.754 340.273,251.349 336.585,251.986C335.169,252.231 308.288,255.752 310.555,243.506C312.929,230.681 354.06,186.608 414.355,165.031C428.633,159.922 505.319,128.087 593.316,177.849C611.762,188.28 626.782,203.068 629.377,205.622C648.15,224.105 648.638,226.757 646.502,226.451C645.839,226.355 619.866,196.234 574.457,191.911C539.115,188.546 476.401,199.778 432.567,248.56C389.968,295.97 389.952,342.709 389.909,343.52Z" style="fill:rgb(80,88,67);"/>
        <path d="M428.382,301.119C434.057,300.102 438.311,298.774 438.649,301.475C439.465,308.004 436.339,379.469 514.46,373.018C528.587,371.852 537.946,366.084 539.754,364.97C539.905,364.877 541.971,363.604 541.943,365.277C541.525,389.858 562.23,386.43 563.486,389.506C564.394,391.727 565.422,416.249 584.431,414.075C588.123,413.653 587.907,411.655 591.451,412.654C593.324,413.181 605.309,415.302 609.757,403.602C613.099,394.809 612.65,388.027 615.281,387.002C618.237,385.85 629.713,383.478 631.088,369.454C631.394,366.33 630.713,364.033 633.459,365.58C653.849,377.07 673.981,371.983 675.502,373.498C677.137,375.126 674.597,404.779 674.365,407.49C673.551,416.992 675.014,417.683 669.338,425.386C667.796,427.479 658.942,439.496 647.325,449.276C645.621,450.711 644.369,451.764 619.56,447.217C595.292,442.769 595.346,442.561 580.535,437.4C572.036,434.438 569.661,446.96 565.548,450.55C564.012,451.891 561.722,450.264 557.882,454.816C556.282,456.713 554.153,459.363 553.833,459.762C550.682,463.685 550.527,464.226 545.466,463.921C535.884,463.342 535.959,467.588 533.587,467.145C532.071,466.862 500.764,437.671 449.713,413.037C428.874,402.981 426.164,406.361 416.021,392.792C415.956,392.704 415.955,392.715 415.129,391.75C415.543,391.135 416.555,391.115 416.97,390.5C417.17,390.204 416.697,389.829 416.663,389.474C416.647,389.3 416.87,388.871 416.675,387.475C415.636,380.042 416.326,380.003 415.235,372.543C414.451,367.184 415.226,345.529 418.317,333.45C425.267,306.3 426.703,306.747 427.262,304.379C427.355,303.984 426.971,303.571 427.067,303.177C427.114,302.987 427.165,303.024 428.382,301.119Z" style="fill:rgb(118,198,215);"/>
        <path d="M561.596,643.047C530.23,635.063 530.212,635.242 527.493,634.526C522.651,633.251 524.864,631.299 523.672,626.451C521.308,616.846 515.059,613.774 514.588,613.396C512.694,611.88 514.821,608.298 518.006,599.329C519.183,596.014 521.161,595.916 525.616,593.711C532.867,590.124 545.071,578.524 544.544,566.5C543.901,551.841 535.814,550.331 537.139,545.384C537.339,544.635 547.99,514.99 548.237,514.38C549.022,512.443 551.925,512.905 553.52,512.71C565.814,511.212 570.095,502.852 570.881,501.793C572.726,499.308 575.428,500.758 580.615,502.071C586.909,503.664 659.28,521.987 659.288,521.989C661.263,522.645 659.612,530.963 664.288,537.634C667.66,542.444 669.135,542.102 670.443,543.56C672.219,545.539 670.794,546.022 651.216,597.38C649.899,600.836 635.037,639.823 634.464,640.468C633.121,641.982 632.802,641.276 628.547,641.816C615.749,643.441 611.1,653.551 610.304,654.276C608.841,655.61 595.963,651.057 561.596,643.047Z" style="fill:rgb(175,133,84);"/>
        <path d="M314.903,549.541C317.731,520.537 319.376,512.589 320.032,509.421C320.575,506.798 324.3,488.8 335.854,479.918C377.336,448.028 423.969,505.133 427.761,509.259C429.907,511.594 434.505,516.449 434.165,517.375C433.603,518.904 433.089,518.06 431.455,518.137C418.871,518.731 400.673,527.394 390.846,534.922C380.954,542.499 388.378,546.417 390.492,546.348C394.35,546.223 413.536,528.074 434.505,527.901C439.922,527.856 449.16,529.842 449.17,529.852C450.243,530.886 446.931,533.458 446.721,533.689C420.035,563.034 416.864,628.166 425.873,665.449C426.779,669.196 424.576,667.844 424.411,667.707C420.706,664.619 411.477,659.681 389.18,640.883C349.652,607.56 341.868,587.437 332.75,553.432C332.56,552.724 330.532,545.159 325.596,547.708C321.614,549.764 322.255,554.147 323.423,558.52C329.572,581.541 333.55,591.68 344.054,607.787C356.496,626.865 363.909,629.86 363.18,631.444C363.147,631.516 362.864,632.13 362.43,632.076C359.532,631.714 359.696,630.956 326.468,625.74C320.528,624.807 319.14,625.938 316.952,620.33C311.481,606.309 308.899,604.066 309.292,600.489C309.739,596.413 314.621,551.948 314.903,549.541Z" style="fill:rgb(78,87,68);"/>
        <path d="M316.552,803.115C377.449,814.164 398.067,806.147 406.397,804.058C438.51,796.005 440.433,780.132 442.756,763.545C445.011,747.447 445.158,707.389 445.176,702.501C445.196,696.911 444.702,693.101 446.521,693.329C448.159,693.533 447.542,694.818 464.633,703.205C471.644,706.647 491.826,716.481 506.681,670.562C509.355,662.297 507.615,658.986 512.567,660.22C527.09,663.84 526.978,664.297 527.148,664.682C527.78,666.113 518.966,767.83 502.262,841.46C501.404,845.241 501.382,846.194 497.504,846.039C491.423,845.797 468.084,845.107 465.525,845.031C444.222,844.402 382.379,837.728 331.494,823.522C328.369,822.65 294.931,813.315 292.904,811.07C291.84,809.891 292.619,799.19 293.594,798.658C295.236,797.762 295.273,799.116 316.552,803.115Z" style="fill:rgb(77,87,69);"/>
        <path d="M388.947,745.547C386.357,763.063 386.339,763.005 383.207,780.434C383.105,781.005 382.146,786.343 383.275,787.688C385.258,790.048 389.14,788.809 389.901,785.623C391.762,777.838 394.347,767.025 403.754,686.526C404.171,682.951 404.013,682.893 404.414,682.438C406.301,680.294 408.825,684.767 427.469,683.233C429.471,683.068 434.812,684.493 435.129,688.499C435.142,688.669 435.393,727.161 434.912,735.523C432.148,783.611 427.531,786.842 408.553,792.657C379.062,801.693 353.459,798.461 325.551,794.214C307.193,791.421 256.855,781.387 243.591,764.435C233.54,751.589 239.942,724.4 243.614,705.523C244.678,700.053 246.835,704.492 251.67,707.202C268.747,716.774 280.368,717.315 280.869,719.376C281.217,720.806 275.951,733.24 281.808,738.052C285.605,741.171 282.987,742.771 282.225,750.473C281.242,760.406 294.84,768.574 295.447,768.747C298.909,769.736 313.307,766.087 316.165,755.418C317.9,748.939 315.388,747.07 320.35,745.096C328.913,741.691 324.225,727.746 328.495,727.8C338.709,727.931 377.924,734.058 392.545,704.545C392.792,704.046 394.495,702.785 394.246,705.519C394.205,705.968 393.667,706.456 392.014,722.422C390.952,732.673 389.234,743.703 388.947,745.547Z" style="fill:rgb(137,98,62);"/>
        <path d="M314.79,454.534C312.464,457.422 312.138,457.109 310.064,460.216C299.168,476.544 294.79,492.636 294.087,494.331C292.978,497.003 290.665,494.466 287.799,491.25C258.41,458.282 281.514,423.486 288.594,401.568C288.791,400.959 288.92,401.109 289.482,401.111C289.714,401.112 289.973,400.72 290.14,400.881C290.937,401.65 296.162,417.147 301.47,416.236C309.822,414.804 300.955,404.079 297.947,398.279C288.704,380.454 285.304,352.625 299.539,341.551C303.832,338.212 316.501,331.846 316.462,335.502C316.413,340.101 316.841,340.93 312.617,342.783C304.943,346.149 302.122,354.56 315.338,366.694C341.262,390.493 384.666,395.736 439.433,419.651C479.16,436.999 515.746,465.028 528.447,476.557C531.673,479.486 527.028,485.657 526.57,485.741C525.265,485.979 493.137,468.575 476.456,461.594C454.789,452.527 427.285,438.138 389.454,431.777C344.601,424.234 315.419,441.214 306.892,447.965C301.049,452.591 305.226,459.781 311.683,454.818C313.665,453.295 314.736,451.913 315.211,454.371C315.239,454.518 314.762,454.387 314.79,454.534Z" style="fill:rgb(128,85,59);"/>
        <path d="M335.456,717.926C334.437,717.835 323.439,716.852 322.774,716.206C321.102,714.584 326.658,698.63 324.412,693.541C321.672,687.331 298.731,685.855 296.428,686.115C287.764,687.096 290.29,708.52 287.55,709.591C285.536,710.378 261.311,703.403 250.743,694.217C237.501,682.706 242.213,668.994 245.025,660.37C255.004,629.773 259.943,628.732 266.475,627.349C272.968,625.975 334.031,637.704 369.542,643.269C376.945,644.429 377.129,644.452 384.43,650.583C398.073,662.041 401.295,661.64 398.997,665.802C384.278,692.461 388.718,721.994 335.456,717.926Z" style="fill:rgb(139,100,62);"/>
        <path d="M625.808,235.154C634.711,243.841 637.339,246.271 635.297,247.102C631.935,248.47 620.684,249.277 609.374,264.407C600.492,276.291 600.158,288.271 600.096,290.484C600.015,293.387 601.387,295.045 598.488,294.758C596.693,294.579 590.508,291.802 578.577,293.891C576.03,294.336 572.066,296.285 571.53,293.493C569.528,283.083 568.209,275.613 551.389,270.871C547.43,269.755 544.227,258.374 526.661,250.141C504.347,239.684 471.281,242.396 454.021,269.196C449.818,275.722 446.418,274.014 442.912,279.751C441.942,281.339 441.201,284.277 438.559,284.791C437.043,285.086 423.724,287.141 420.546,287.845C415.707,288.917 419.677,284.28 422.032,280.246C431.603,263.85 451.521,240.359 472.729,227.887C478.512,224.486 514.549,203.295 552.494,201.975C560.056,201.713 597.664,208.964 625.808,235.154Z" style="fill:rgb(105,187,204);"/>
        <path d="M696.082,708.515C697.751,726.803 700.706,764.651 701.087,769.534C703.418,799.403 702.7,799.513 702.13,800.23C693.405,811.197 637.97,830.005 635.474,827.525C634.654,826.71 620.117,688.947 620.901,687.789C621.653,686.679 624.108,688.141 628.598,689.112C641.089,691.815 640.688,692.885 645.616,695.279C648.211,696.54 662.818,703.637 681.588,697.781C691.411,694.716 694.475,689.657 694.9,693.408C695.667,700.169 696.022,707.305 696.082,708.515Z" style="fill:rgb(78,87,69);"/>
        <path d="M597.422,670.892C584.005,667.505 584.022,667.655 570.571,664.233C491.3,644.068 491.054,645.164 484.393,642.689C482.057,641.821 482.888,640.122 493.107,612.363C495.612,605.558 495.32,603.239 499.476,602.349C508.646,600.386 508.776,600.097 509.338,600.667C509.906,601.242 509.488,601.371 508.153,605.392C501.559,625.239 497.812,630.627 499.453,633.532C500.438,635.276 500.92,634.852 523.462,640.635C568.465,652.181 568.578,651.555 613.62,663.039C629.695,667.138 631.251,667.582 632.744,664.637C634.84,660.499 634.548,660.389 653.793,610.605C655.904,605.146 676.158,552.753 680.032,542.307C686.481,524.916 688.447,523.368 684.468,521.573C680.675,519.862 633.955,508.413 629.547,507.332C568.449,492.36 554.599,487.424 551.547,488.611C549.078,489.571 543.592,507.993 534.978,530.683C531.52,539.793 531.361,543.439 528.52,542.447C519.395,539.259 519.565,538.33 519.71,537.536C520.359,533.987 526.172,519.188 526.79,517.614C534.181,498.798 540.66,475.349 543.65,473.999C544.548,473.593 544.627,473.687 590.537,485.366C675.132,506.886 675.197,506.442 682.532,508.379C699.01,512.729 703.028,512.856 702.884,515.533C702.756,517.914 661.978,622.194 658.361,631.446C639.675,679.231 640.559,681.096 637.452,680.894C635.655,680.777 600.617,671.718 597.422,670.892Z" style="fill:rgb(174,133,84);"/>
        <path d="M765.988,574.583C765.647,580.841 764.187,588.161 771.991,596.006C774.446,598.474 772.715,599.51 768.744,609.6C765.299,618.357 763.522,617.177 737.559,639.57C732.922,643.569 714.765,657.784 710.098,663.005C709.979,663.138 706.618,665.716 708.453,661.489C711.657,654.112 773.947,498.559 774.633,497.592C776.503,494.959 803.365,473.132 827.4,453.391C828.367,452.596 839.479,443.47 839.498,443.469C841.292,443.422 839.925,444.838 837.13,451.372C804.018,528.768 801.77,537.057 799.702,537.944C795.079,539.927 773.282,541.633 765.988,574.583Z" style="fill:rgb(140,98,61);"/>
        <path d="M548.388,282.816C547.756,285.063 548.324,285.032 549.779,290.421C557.168,317.788 537.113,338.934 536.372,339.393C536.126,339.546 535.705,339.295 535.509,339.509C535.318,339.719 535.861,340.38 534.396,341.376C527.545,346.034 527.594,346.149 518.645,348.977C483.115,360.208 449.134,329.486 454.181,295.457C454.832,291.069 455.698,287.554 455.663,287.5C455.3,286.936 454.47,286.788 454.107,286.223C456.66,283.673 461.397,278.94 498.491,278.17C516.914,277.787 537.7,279.853 548.388,282.816Z" style="fill:rgb(248,247,238);"/>
        <path d="M564.05,690.464C565.256,676.638 565.104,676.651 565.209,675.451C565.461,672.577 566.73,673.585 569.557,674.252C582.073,677.206 582.227,677.426 582.621,678.45C583.143,679.806 591.739,783.299 594.915,816.456C595.445,821.988 596.413,823.965 593.366,825.065C573.718,832.157 553.046,834.833 549.47,835.296C546.863,835.633 544.184,836.896 545.148,832.426C548.916,814.952 557.496,762.904 564.05,690.464Z" style="fill:rgb(118,197,211);"/>
        <path d="M686.466,279.562C688.76,287.103 700.012,308.153 685.027,333.179C683.136,336.338 681.062,338.595 674.697,344.638C667.991,347.234 649.822,358.131 627.847,339.057C624.451,336.11 620.768,330.521 619.5,328.726C618.718,327.619 618.864,327.573 618.776,327.5C618.015,326.864 617.805,327.31 617.036,326.666C611.226,309.781 610.463,289.349 620.403,284.328C632.46,278.237 679.066,277.385 686.466,279.562Z" style="fill:rgb(249,247,238);"/>
        <path d="M482.42,533.794C482.632,534.054 482.845,534.313 483.057,534.573C482.976,534.809 483.321,535.063 483.239,535.3C482.833,536.483 481.018,535.064 473.305,547.377C448.862,586.401 453.895,669.598 464.699,689.434C464.808,689.632 466.525,692.785 464.56,692.261C463.904,692.086 464.044,691.826 457.327,687.802C438.284,676.392 436.588,677.467 435.032,671.608C421.443,620.456 430.208,557.164 457.629,532.623C461.143,529.478 470.129,533.451 482.42,533.794Z" style="fill:rgb(131,87,61);"/>
        <path d="M552.953,697.538C545.452,781.088 537.38,814.696 534.063,835.451C532.501,845.224 531.356,845.452 530.511,845.62C529.822,845.758 516.182,845.82 511.49,846.06C506.768,846.302 511.15,843.032 519.94,787.568C528.033,736.503 527.227,736.419 531.741,697.529C532.572,690.369 534.122,671.735 534.308,669.491C534.517,666.988 534.045,665.786 536.542,666.204C537.749,666.406 537.676,666.64 551.381,669.925C556.677,671.194 554.966,673.102 554.493,678.5C553.706,687.489 553.067,696.014 552.953,697.538Z" style="fill:rgb(130,87,60);"/>
        <path d="M730.539,564.876C731.889,564.621 737.938,562.802 736.041,566.279C735.31,567.619 707.158,638.044 705.758,640.635C704.229,643.466 683.32,650.132 666.454,643.582C664.772,642.929 665.512,640.99 667.692,635.58C674.163,619.526 695.72,562.261 696.633,561.676C700.022,559.505 702.675,568.012 730.539,564.876Z" style="fill:rgb(174,133,83);"/>
        <path d="M373.552,461.067C370.499,460.635 355.18,457.317 336.663,466.819C312.002,479.473 307.824,501.877 304.446,503.036C298.979,504.912 308.685,481.115 314.776,470.667C338.912,429.269 406.44,425.748 444.17,490.709C453.681,507.085 457.425,518.922 457.222,519.415C456.78,520.486 453.358,519.836 451.49,519.592C446.358,518.923 447.382,517.122 439.037,506.922C405.52,465.954 379.874,462.033 373.552,461.067Z" style="fill:rgb(136,97,61);"/>
        <path d="M508.759,534.251C504.04,525.241 502.24,526.395 482.538,523.27C475.788,522.199 468.738,522.795 467.825,520.353C465.603,514.411 458.679,485.549 430.736,457.251C427.479,453.954 425.078,453.546 427.441,452.334C428.984,451.542 493.707,479.406 519.622,494.261C522.389,495.847 523.854,495.605 522.792,498.593C521.935,501.003 521.822,500.912 511.815,528.625C509.98,533.708 510.366,533.821 510.168,534.245C510.121,534.348 510.068,534.246 508.759,534.251Z" style="fill:rgb(79,88,70);"/>
        <path d="M614.078,697.533C618.634,744.442 625.258,803.938 625.97,812.476C626.872,823.306 629.317,829.498 626.42,830.253C625.955,830.375 609.074,833.601 607.58,833.178C606.438,832.855 606.462,832.351 602.903,791.465C600.161,759.98 599.928,760.033 597.286,728.521C593.735,686.173 593.435,686.193 593.587,682.503C593.706,679.62 597.422,681.464 603.428,682.806C611.763,684.668 612.829,684.305 613.14,687.529C613.969,696.119 614.016,696.731 614.078,697.533Z" style="fill:rgb(131,87,60);"/>
        <path d="M378.393,253.826C375.124,252.065 374.502,250.151 377.931,244.819C380.54,240.761 378.109,240.688 374.691,237.297C352.649,215.423 370.758,182.181 397.489,183.694C415.669,184.723 421.665,198.096 424.477,198.092C425.025,198.092 428.062,196.39 428.363,196.221C434.483,192.791 438.082,199.95 432.12,204.02C429.534,205.786 412.134,217.664 401.868,228.854C382.235,250.254 384.498,254.402 378.393,253.826Z" style="fill:rgb(61,41,27);"/>
        <path d="M478.473,595.052C474.551,595.231 469.201,595.898 468.742,594.419C467.18,589.38 479.912,547.558 487.415,546.051C488.599,545.813 516.44,545.37 527.397,553.645C538.601,562.105 540.027,582.834 501.553,591.742C492.204,593.906 480.332,594.897 478.473,595.052Z" style="fill:rgb(117,197,212);"/>
        <path d="M250.541,549.951C267.705,548.297 272.806,539.424 274.517,538.525C277.088,537.175 276.318,539.535 279.824,549.389C289.767,577.329 288.451,577.736 298.294,602.588C305.613,621.067 307.476,621.074 306.301,622.306C305.691,622.945 305.548,622.529 302.435,621.962C289.743,619.649 279.167,618.713 277.734,617.302C277.298,616.873 268.736,598.884 267.97,597.275C246.901,553.01 245.377,553.619 245.257,551.514C245.162,549.86 249.01,550.038 250.541,549.951Z" style="fill:rgb(235,219,183);"/>
        <path d="M231.067,541.49C231.692,547.507 233.121,547.031 260.069,602.715C266.467,615.935 267.056,616.247 266.136,617.091C266.116,617.109 266.158,617.332 261.547,617.816C258.185,618.169 258.782,616.568 250.263,604.652C231.459,578.351 232.458,577.702 213.387,551.582C210.555,547.704 201.726,534.342 200.315,532.62C196.966,528.536 204.55,532.301 219.324,523.206C220.517,522.471 228.448,517.588 232.065,511.192C232.968,509.595 233.021,508.402 234.36,509.641C235.013,510.245 234.708,510.439 239.287,519.605C241.584,524.202 237.842,524.399 234.848,529.7C230.914,536.663 231.108,540.86 231.067,541.49Z" style="fill:rgb(217,196,156);"/>
        <path d="M548.388,282.816C548.794,282.901 564.771,281.835 558.354,315.468C547.222,373.806 489.553,364.977 472.668,353.236C455.56,341.34 452.096,322.698 450.899,304.477C450.065,291.787 453.236,287.423 454.107,286.223C454.47,286.788 455.3,286.936 455.663,287.5C455.698,287.554 454.832,291.069 454.181,295.457C449.134,329.486 483.115,360.208 518.645,348.977C527.594,346.149 527.545,346.034 534.396,341.376C535.861,340.38 535.318,339.719 535.509,339.509C535.705,339.295 536.126,339.546 536.372,339.393C537.113,338.934 557.168,317.788 549.779,290.421C548.324,285.032 547.756,285.063 548.388,282.816Z" style="fill:rgb(149,209,218);"/>
        <path d="M240.565,607.458C251.88,623.297 251.338,624.079 250.405,625.427C247.304,629.905 246.951,629.629 244.26,634.364C243.215,636.204 242.805,637.45 240.534,635.458C233.785,629.54 210.97,607.892 191.569,591.421C190.535,590.544 186.866,588.365 189.413,587.353C194.15,585.47 198.535,584.325 205.759,574.681C210.087,568.903 210.128,563.5 212.995,568.156C215.009,571.426 215.47,571.039 240.565,607.458Z" style="fill:rgb(219,199,161);"/>
        <path d="M627.434,473.953C648.768,477.465 686.237,480.921 712.908,501.004C716.74,503.889 711.719,505.746 709.587,505.201C663.037,493.304 663.111,493.21 616.469,481.638C612.055,480.543 562.524,468.254 561.357,467.722C559.157,466.721 564.683,459.359 567.577,460.167C579.926,463.615 587.417,468.029 627.434,473.953Z" style="fill:rgb(238,222,190);"/>
        <path d="M623.064,365.524C623.043,365.852 623.94,372.165 619.231,376.174C613.083,381.407 601.11,374.83 599.735,374.075C592.081,369.87 591.604,372.209 583.56,375.637C551.781,389.182 541.898,367.606 557.36,354.33C560.607,351.542 568.007,347.879 570.284,349.784C571.404,350.722 575.884,356.464 588.475,358.676C599.542,360.62 608.355,352.901 609.699,351.724C611.892,349.802 615.347,351.906 617.695,354.307C622.166,358.88 622.392,360.978 623.064,365.524Z" style="fill:rgb(228,190,147);"/>
        <path d="M634.452,458.952C642.425,460.049 695.961,462.991 722.552,489.447C728.072,494.939 727.528,495.649 727.132,496.165C727.035,496.292 723.682,498.137 722.481,498.314C719.556,498.745 705.828,481.824 663.585,473.039C642.719,468.699 600.866,463.684 576.41,455.715C575.846,455.531 573.064,454.562 578.672,448.656C581.08,446.12 581.303,451.179 621.536,457.284C621.586,457.292 628.377,458.408 634.452,458.952Z" style="fill:rgb(238,221,189);"/>
        <path d="M585.028,571.159C583.94,568.883 583.3,569.668 580.414,568.828C575.293,567.337 573.994,566.835 573.449,566.624C565.339,563.485 570.144,559.358 571.481,559.249C572.046,559.203 598.484,566.632 608.593,569.06C618.668,571.48 620.09,567.773 623.494,567.78C629.555,567.792 626.84,576.504 615.515,576.788C609.136,576.948 607.142,575.471 606.498,575.368C604.216,575.004 606.923,580.226 606.956,580.307C607.974,582.834 613.927,598.067 614.104,599.545C614.654,604.141 611.413,603.477 583.582,596.207C573.499,593.573 558.941,591.875 564.613,585.613C566.941,583.042 583.775,571.891 585.028,571.159Z" style="fill:rgb(63,41,24);"/>
        <path d="M428.382,301.119C427.165,303.024 427.114,302.987 427.067,303.177C426.971,303.571 427.355,303.984 427.262,304.379C426.703,306.747 425.267,306.3 418.317,333.45C415.226,345.529 414.451,367.184 415.235,372.543C416.326,380.003 415.636,380.042 416.675,387.475C416.87,388.871 416.647,389.3 416.663,389.474C416.697,389.829 417.17,390.204 416.97,390.5C416.555,391.115 415.543,391.135 415.129,391.75C398.302,370.376 400.427,343.844 400.773,339.525C400.99,336.82 401.998,324.24 408.482,306.494C409.689,303.191 413.337,303.064 428.382,301.119Z" style="fill:rgb(89,164,179);"/>
        <path d="M681.04,325.492C680.857,327.514 679.508,342.413 664.54,344.763C644.823,347.859 636.288,322.697 648.151,311.105C651.018,308.304 660.255,303.89 668.362,306.888C681.405,311.71 680.971,324.736 681.04,325.492Z" style="fill:rgb(64,44,28);"/>
        <path d="M686.466,279.562C690.342,278.85 695.612,279.963 696.39,280.128C696.347,282.434 696.372,282.405 697.126,284.625C698.439,288.491 697.474,290.474 701.564,289.972C712.149,288.675 714.259,287.929 715.312,287.557C715.827,288.384 717.745,291.465 717.778,299.492C717.781,300.201 717.748,300.369 717.733,300.444C717.535,301.462 717.661,301.411 717.582,302.472C717.016,302.394 717.077,301.94 715.499,302.186C702.531,304.206 702.392,303.801 701.582,304.588C698.757,307.332 704.965,311.157 694.976,332.732C693.128,336.724 694.207,336.908 694.558,352.483C694.59,353.919 695.313,354.021 695.416,354.231C685.577,360.535 678.184,360.623 676.593,360.642C674.928,355.804 675.827,355.689 674.697,344.638C681.062,338.595 683.136,336.338 685.027,333.179C700.012,308.153 688.76,287.103 686.466,279.562Z" style="fill:rgb(137,121,105);"/>
        <path d="M511.916,309.345C512.039,308.914 511.514,308.733 512.222,308.271C525.872,299.356 546.079,315.654 537.093,334.305C532.313,344.229 515.956,349.763 505.848,339.172C495.668,328.506 504.05,310.266 505.493,315.503C505.528,315.632 505.425,319.164 508.617,321.306C515.373,325.839 523.098,313.345 512.622,310.187C512.387,309.907 512.152,309.626 511.916,309.345Z" style="fill:rgb(65,44,28);"/>
        <path d="M425.203,851.97C425.237,852.939 425.501,853.081 424.722,853.671C419.932,857.298 404.854,872.186 388.475,873.244C361.651,874.978 373.73,846.216 377.579,844.89C378.613,844.533 410.06,850.702 425.203,851.97Z" style="fill:rgb(216,174,132);"/>
        <path d="M801.558,547.945C802.205,547.97 802.851,547.842 803.498,547.866C812.296,548.197 809.787,580.312 793.27,589.087C776.386,598.056 771.984,579.593 779.161,566.323C786.898,552.019 794.157,549.799 801.558,547.945Z" style="fill:rgb(117,198,210);"/>
        <path d="M692.991,393.896C694.912,393.805 694.629,394.553 694.951,395.054C707.77,415.042 703.514,431.039 682.903,450.914C678.624,455.04 678.649,456.012 674.566,455.211C661.328,452.615 660.778,453.69 660.289,452.637C659.987,451.987 659.861,451.931 660.384,451.432C661.581,450.293 661.787,450.092 661.907,449.974C686.248,426.126 690.383,407.443 692.991,393.896Z" style="fill:rgb(127,86,59);"/>
        <path d="M399.58,194.012C409.293,195.732 416.335,203.645 415.315,205.407C413.173,209.106 406.512,209.726 388.079,232.131C386.32,234.27 384.776,234.088 379.902,228.178C370.524,216.805 376.42,205.616 377.822,203.727C385.463,193.433 392.319,193.317 399.58,194.012Z" style="fill:rgb(112,197,214);"/>
        <path d="M716.544,543.091C716.055,542.983 710.428,541.747 710.428,541.747C708.129,541.08 704.513,540.416 705.61,537.541C712.742,518.86 712.708,518.888 712.795,518.812C713.424,518.259 716.315,519.002 716.612,519.079C736.338,524.15 747.501,519.314 753.438,517.305C757.716,515.856 754.362,520.808 753.993,521.742C748.445,535.778 748.145,538.541 744.579,539.745C729.284,544.907 719.955,543.279 716.544,543.091Z" style="fill:rgb(172,132,83);"/>
        <path d="M775.707,467.727C777.6,465.988 783.56,460.51 801.77,448.928C825.238,434.001 826.212,431.099 827.539,430.966C828.295,430.89 833.552,433.827 833.674,434.427C834.027,436.157 833.111,435.961 817.259,449.188C814.466,451.518 797.175,465.945 782.143,478.082C768.285,489.27 763.266,494.701 762.347,495.168C761.245,495.726 758.027,495.009 757.616,494.409C756.483,492.753 763.882,478.521 775.707,467.727Z" style="fill:rgb(236,218,183);"/>
        <path d="M747.734,479.595C750.117,474.512 750.016,474.511 752.88,469.733C764.967,449.562 779.678,443.71 805.805,426.992C813.311,422.189 813.728,420.145 816.38,422.625C819.573,425.611 821.701,426.547 818.194,429.114C788.078,451.165 767.7,457.305 753.054,486.288C750.324,491.69 751.455,494.443 745.484,493.611C742.059,493.133 745.345,485.869 747.734,479.595Z" style="fill:rgb(235,215,181);"/>
        <path d="M582.967,838.935C594.149,835.754 596.363,834.636 596.774,836.394C597.353,838.875 595.594,845.258 604.472,844.247C631.567,841.162 645.655,835.776 647.378,836.748C651.376,839.002 660.205,856.312 641.542,858.796C622.873,861.28 590.384,844.02 586.302,841.851C584.93,841.123 584.94,841.176 583.553,840.444C582.741,840.016 582.978,839.858 582.967,838.935Z" style="fill:rgb(213,170,125);"/>
        <path d="M600.582,331.037C598.611,330.616 584.723,327.651 575.425,332.357C568.108,336.059 570.394,340.421 564.494,341.433C562.392,341.793 562.979,340.557 563.818,338.622C569.872,324.657 570.31,316.046 571.219,311.428C572.182,306.534 587.386,304.595 593.525,306.401C598.423,307.842 600.52,308.4 601.058,312.552C602.818,326.136 605.51,331.133 605.386,331.493C604.73,333.39 604.065,331.991 600.582,331.037Z" style="fill:rgb(118,198,214);"/>
        <path d="M688.465,668.04C694.406,667.066 694.421,667.543 694.435,667.56C694.928,668.138 693.856,670.838 689.979,679.688C685.567,689.76 665.194,692.222 652.481,687.548C647.157,685.591 649.378,683.686 651.004,679.308C656.377,664.835 656.391,663.568 658.574,664.295C666.506,666.939 666.751,669.499 688.465,668.04Z" style="fill:rgb(174,133,85);"/>
        <path d="M717.582,302.472C716.059,329.983 710.232,343.477 695.416,354.231C695.313,354.021 694.59,353.919 694.558,352.483C694.207,336.908 693.128,336.724 694.976,332.732C704.965,311.157 698.757,307.332 701.582,304.588C702.392,303.801 702.531,304.206 715.499,302.186C717.077,301.94 717.016,302.394 717.582,302.472Z" style="fill:rgb(250,248,239);"/>
        <path d="M792.7,413.531C790.844,426.896 789.993,426.837 788.553,427.598C784.449,429.766 768.026,440.05 762.776,444.823C749.48,456.911 740.994,470.87 738.782,480.614C735.74,494.01 733.933,472.256 745.787,452.687C758.306,432.019 789.118,412.195 790.772,410.914C791.566,410.299 791.554,410.224 792.568,410.378C793.787,410.562 793.004,411.099 792.7,413.531Z" style="fill:rgb(219,196,158);"/>
        <path d="M480.529,266.958C477.022,267.328 477.064,267.289 473.525,267.698C470.327,268.067 470.328,267.938 468.487,268.407C466.843,268.826 466.506,269.896 465.609,268.441C465.257,267.87 465.23,267.508 471.401,262.377C482.358,253.266 510.297,244.289 534.686,265.314C535.09,265.661 535.766,266.174 535.861,266.247C535.992,266.346 537.765,267.69 536.383,268.227C536.134,268.324 523.756,265.86 497.499,266.205C490.578,266.296 490.632,266.43 480.529,266.958Z" style="fill:rgb(248,246,234);"/>
        <path d="M676.208,265.63C675.878,265.868 675.984,266.481 675.654,266.72C675.193,267.052 673.467,266.3 664.5,266.497C621.225,267.448 616.763,273.34 614.454,274.211C614.192,274.31 612.509,274.042 614.905,270.746C633.995,244.49 664.486,254.722 676.208,265.63Z" style="fill:rgb(248,246,235);"/>
        <path d="M617.036,326.666C617.805,327.31 618.015,326.864 618.776,327.5C618.864,327.573 618.718,327.619 619.5,328.726C620.768,330.521 624.451,336.11 627.847,339.057C649.822,358.131 667.991,347.234 674.697,344.638C675.827,355.689 674.928,355.804 676.593,360.642C675.832,360.753 658.101,365.259 638.704,355.121C632.295,351.772 627.198,345.604 626.372,344.605C619.836,336.696 617.471,328.225 617.036,326.666Z" style="fill:rgb(149,207,216);"/>
        <path d="M628.951,553.505C629.307,548.902 627.41,549.746 624.583,549.132C618.892,547.896 619.693,544.596 622.284,536.432C625.606,525.966 629.138,531.944 629.299,532.564C630.099,535.645 627.928,540.057 627.753,540.581C626.81,543.409 630.477,543.525 631.241,543.109C632.197,542.587 631.864,542.324 633.435,537.476C635.224,531.953 641.838,532.534 639.65,539.548C636.789,548.722 636.601,548.653 636.36,549.452C635.135,553.512 638.867,553.759 639.536,553.562C641.004,553.13 643.786,539.573 645.649,537.645C646.087,537.192 652.894,533.691 649.515,544.505C643.125,564.962 642.29,565.132 640.5,565.499C637.012,566.213 635.857,560.564 635.772,560.364C634.286,556.886 629.913,560.132 628.951,553.505Z" style="fill:rgb(64,41,24);"/>
        <path d="M668.937,216.499C668.888,217.564 668.605,223.603 665.185,229.286C662.395,233.921 662.886,227.293 644.638,206.385C641.765,203.092 641.563,203.205 641.499,202.5C641.243,199.666 658.358,191.618 666.849,207.322C669.193,211.658 668.92,216.081 668.937,216.499Z" style="fill:rgb(108,191,210);"/>
        <path d="M579.089,538.602C578.854,538.184 578.784,535.269 573.774,537.97C570.939,539.499 569.66,542.02 569.434,542.466C566.23,548.782 561.32,543.092 564.824,537.72C568.209,532.532 574.144,531.287 574.325,531.187C577.601,529.375 566.507,520.63 569.841,516.806C573.002,513.178 576.743,519.201 580.876,526.29C581.152,526.764 583.519,530.824 587.408,528.346C590.505,526.371 589.803,525.8 591.104,522.344C592.679,518.156 597.189,521.399 596.274,525.462C593.932,535.867 584.959,535.32 584.349,536.353C582.407,539.642 588.506,546.514 588.709,547.45C589.833,552.64 582.137,550.832 576.872,547.04C576.389,546.691 573.852,543.31 577.625,541.874C580.248,540.876 579.078,540.041 579.089,538.602Z" style="fill:rgb(64,42,24);"/>
        <path d="M413.953,728.515C414.934,712.892 414.747,712.888 414.846,711.531C415.235,706.183 419.478,706.24 421.153,708.712C422.929,711.335 419.344,754.692 416.706,768.539C415.109,776.921 408.565,773.964 409.391,768.488C413.394,741.96 413.47,734.962 413.953,728.515Z" style="fill:rgb(60,38,23);"/>
        <path d="M302.412,717.878C296.869,716.708 296.88,716.847 296.406,716.726C294.124,716.145 295.91,714.894 297.92,697.547C298.514,692.42 300.613,693.597 306.443,694.832C309.504,695.48 316.121,695.839 316.285,698.512C316.395,700.311 313.438,717.779 313.288,718.44C312.895,720.179 312.078,719.894 302.412,717.878Z" style="fill:rgb(137,96,62);"/>
        <path d="M546.365,618.965C553.35,620.74 556.871,622.334 557.657,620.589C558.049,619.717 561.472,609.462 561.654,608.518C562.506,604.095 545.14,605.875 546.148,599.433C546.654,596.202 549.473,596.613 565.597,601.154C570.472,602.526 569.951,604.658 564.055,622.356C562.101,628.22 561.603,629.672 555.561,628.235C545.444,625.828 538.199,624.726 539.155,620.407C539.512,618.793 541.215,618.385 541.456,618.327C542.924,617.975 542.91,618.29 546.365,618.965Z" style="fill:rgb(63,41,23);"/>
        <path d="M729.867,677.437C732.064,686.505 731.865,686.558 735.729,694.47C735.792,694.598 736.915,696.898 734.47,695.719C733.653,695.325 717.601,687.23 715.947,685.121C715.534,684.595 712.951,673.857 712.993,673.726C713.392,672.49 713.485,672.201 725.208,663.031C728.507,660.451 727.513,665.743 729.867,677.437Z" style="fill:rgb(131,89,60);"/>
        <path d="M197.495,522.058C196.071,521.939 191.428,522.797 192.089,517.43C192.565,513.567 199.436,502.706 211.625,497.777C212.863,497.276 228.179,491.082 228.295,498.504C228.431,507.166 214.37,519.293 210.687,517.156C209.904,516.702 203.054,511.434 217.403,508.059C223.716,506.575 222.063,499.396 213.434,501.177C207.22,502.46 197.386,509.904 201.68,518.417C203.977,522.97 200.237,521.855 197.495,522.058Z" style="fill:rgb(216,191,150);"/>
        <path d="M715.455,549.888C739.608,552.572 742.063,545.121 742.77,548.349C742.882,548.861 741.515,554.599 738.611,555.782C724.753,561.428 698.404,557.876 699.877,552.598C701.574,546.515 702.715,546.249 704.351,546.891C707.67,548.193 709.703,549.156 715.455,549.888Z" style="fill:rgb(174,133,85);"/>
        <path d="M676.454,652.94C696.907,654.632 703.856,647.034 700.743,653.599C699.246,656.758 699.999,659.864 687.455,661.104C671.688,662.663 659.505,659.163 660,655.598C660.078,655.035 660.933,648.872 664.348,649.974C668.875,651.434 668.741,651.967 676.454,652.94Z" style="fill:rgb(183,144,91);"/>
        <path d="M597.768,575.394C603.794,592.776 606.18,594.425 603.5,594.4C602.936,594.394 581.424,588.108 576.592,587.234C572.892,586.564 579.115,583.605 586.313,578.231C593.413,572.929 595.472,571.378 597.029,573.809C597.343,574.3 597.454,574.903 597.768,575.394Z" style="fill:rgb(177,137,87);"/>
        <path d="M204.054,561.312C203.084,561.341 203.018,561.619 202.328,560.977C195.116,554.269 180.843,567.376 184.887,573.237C188.77,578.864 192.044,567.23 196.551,566.819C204.978,566.052 190.863,582.529 179.545,580.234C170.757,578.452 181.986,556.021 195.58,553.926C204.482,552.555 204.048,557.695 204.054,561.312Z" style="fill:rgb(220,198,159);"/>
        <path d="M587.899,399.554C587.552,402.028 587.591,406.544 581.525,406.168C580.072,406.078 574.069,405.706 572.181,390.548C571.578,385.703 575.807,388.394 585.615,383.756C587.755,382.744 588.928,382.064 588.946,384.441C588.987,389.885 588.035,398.35 587.899,399.554Z" style="fill:rgb(251,251,242);"/>
        <path d="M298.406,741.94C306.438,743.626 309.237,743.474 309.234,745.508C309.224,754.684 306.43,756.236 305.608,756.693C297.766,761.051 296.884,760.421 294.38,757.605C290.555,753.304 289.936,752.007 291.75,742.561C292.087,740.806 292.818,740.95 298.406,741.94Z" style="fill:rgb(137,98,63);"/>
        <path d="M294.417,732.937C288.82,731.87 288.806,731.92 288.362,731.722C287.03,731.13 288.086,725.899 288.186,725.404C288.366,724.514 288.715,722.783 299.537,725.33C308.285,727.388 316.627,727.599 317.879,729.258C317.909,729.299 319.473,737.691 315.549,737.149C313.803,736.907 296.106,733.283 294.417,732.937Z" style="fill:rgb(190,155,103);"/>
        <path d="M267.442,522.88C281.115,527.095 259.144,541.763 255.399,540.805C254.774,540.645 250.934,537.263 260.518,534.57C261.029,534.426 265.773,533.093 264.715,529.43C263.099,523.835 244.61,528.97 246.242,540.548C246.868,544.991 240.569,543.37 240.33,540.513C240.052,537.183 247.023,521.626 267.442,522.88Z" style="fill:rgb(228,206,168);"/>
        <path d="M596.986,557.539C597.32,556.394 597.325,556.44 602.342,541.443C605.975,530.583 607.024,525.866 610.656,527.114C614.32,528.373 611.626,535.07 611.193,536.402C603.532,559.944 603.3,560.202 601.347,561.032C597.966,562.47 597.074,557.977 596.986,557.539Z" style="fill:rgb(64,40,24);"/>
        <path d="M599.608,616.69C606.979,612.061 610.769,610.191 613.186,614.659C620.395,627.978 619.081,629.245 618.144,630.148C613.713,634.419 609.396,621.248 608.502,620.498C606.04,618.434 597.649,629.426 593.528,624.479C590.594,620.957 599.561,616.719 599.608,616.69Z" style="fill:rgb(64,40,24);"/>
        <path d="M300.566,578.915C300.292,578.792 299.839,579.529 299.556,578.46C296.321,566.217 294.146,566.317 295.829,561.614C302.949,541.723 302.511,541.635 304.813,532.62C305.344,530.538 306.491,531.156 306.653,531.243C307.877,531.902 306.355,532.354 304.706,548.518C303.173,563.534 302.912,563.442 301.354,578.427L300.566,578.915Z" style="fill:rgb(141,96,60);"/>
        <path d="M574.178,626.401C574.711,624.791 575.513,622.366 581.264,606.414C584.025,598.754 588.594,603.235 587.675,607.532C586.997,610.703 581.17,628.024 580.586,629.539C579.569,632.177 576.816,633.345 574.838,632.023C573.123,630.877 574.075,626.842 574.178,626.401Z" style="fill:rgb(62,40,23);"/>
        <path d="M725.558,511.061C725.162,510.995 724.759,510.971 724.363,510.904C718.112,509.852 734.542,501.671 746.506,502.343C747.243,502.385 757.608,502.968 755.254,505.271C754.348,506.158 749.907,508.104 749.425,508.315C740.113,512.395 727.472,511.237 725.558,511.061Z" style="fill:rgb(199,171,135);"/>
        <path d="M595.095,393.465C595.215,392.19 595.799,385.242 595.859,384.527C596.183,380.67 599.203,383.167 599.577,383.338C603.955,385.342 606.501,385.186 605.731,388.55C603.09,400.071 601.041,404.792 596.479,405.019C592.525,405.217 594.392,401.509 595.095,393.465Z" style="fill:rgb(251,250,243);"/>
        <path d="M696.39,280.128C703.693,281.332 711.028,282.046 715.312,287.557C714.259,287.929 712.149,288.675 701.564,289.972C697.474,290.474 698.439,288.491 697.126,284.625C696.372,282.405 696.347,282.434 696.39,280.128Z" style="fill:rgb(246,242,230);"/>
        <path d="M651.387,321.888C644.348,318.523 648.737,313.135 650.606,311.749C658.564,305.854 664.686,323.494 651.387,321.888Z" style="fill:rgb(250,249,240);"/>
        <path d="M670.605,525.029C672.037,525.351 672.004,525.335 673.459,525.671C673.827,525.756 677.587,526.622 677.877,527.342C678.223,528.201 674.998,537.167 673.511,537.162C670.694,537.153 663.764,523.362 669.457,524.722C669.842,524.814 670.22,524.937 670.605,525.029Z" style="fill:rgb(180,139,90);"/>
        <path d="M621.413,657.91C621.191,657.854 618.642,657.207 618.642,657.207C614.376,655.489 627.723,647.074 630.412,648.693C631.027,649.063 631.788,649.521 628.297,657.416C627.129,660.056 622.609,658.181 621.413,657.91Z" style="fill:rgb(171,131,83);"/>
        <path d="M552.591,609.193C553.008,609.346 556.84,610.75 556.161,613.432C555.323,616.74 551.851,615.823 551.446,615.716C551.298,615.677 540.702,613.855 542.84,609.66C542.96,609.424 543.709,607.954 545.533,607.73C547.866,607.445 547.817,607.914 552.591,609.193Z" style="fill:rgb(61,38,21);"/>
        <path d="M513.598,631.046C512.714,630.853 512.742,630.742 509.556,630.164C505.693,629.464 507.697,627.588 509.692,621.569C511.091,617.348 516.006,621.948 517.568,629.49C518.169,632.39 516.488,631.732 513.598,631.046Z" style="fill:rgb(176,135,88);"/>
        <path d="M556.395,505.15C556.054,505.238 552.374,506.184 551.992,505.303C551.633,504.474 554.44,496.55 555.324,496.216C556.487,495.778 566.204,497.137 564.032,500.176C562.128,502.841 557.071,504.878 556.395,505.15Z" style="fill:rgb(178,136,89);"/>
        <path d="M564.904,571.499C563.186,581.033 552.639,575.031 557.451,568.457C557.522,568.36 558.993,566.469 561.599,567.142C564.57,567.911 564.329,568.501 564.904,571.499Z" style="fill:rgb(65,43,25);"/>
        <path d="M698.715,458.331C698.786,458.418 699.603,459.419 699.603,459.419C701.669,461.922 703.472,463.76 702.515,464.525C701.842,465.064 701.85,464.192 692.392,460.816C689.818,459.897 687.869,459.707 689.905,457.865C693.197,454.886 693.964,452.848 696.88,456.208C698.103,457.618 698.123,457.592 698.229,457.714C698.486,458.011 698.436,458.008 698.715,458.331Z" style="fill:rgb(132,90,61);"/>
        <path d="M630.104,588.506C627.982,598.121 618.433,590.465 622.568,585.555C624.584,583.161 627.181,584.2 627.563,584.353C630.194,585.405 630.067,588.294 630.104,588.506Z" style="fill:rgb(56,36,20);"/>
        <path d="M604.477,627.953C613.435,630.642 604.909,639.678 600.774,634.307C600.593,634.072 599.546,632.712 600.699,630.597C602.221,627.803 603.725,628.155 604.477,627.953Z" style="fill:rgb(55,34,20);"/>
    </g>
</svg>
